<?xml version="1.0" encoding="utf-8"?>
<!-- Generator: Adobe Illustrator 16.0.0, SVG Export Plug-In . SVG Version: 6.00 Build 0)  -->
<!DOCTYPE svg PUBLIC "-//W3C//DTD SVG 1.1//EN" "http://www.w3.org/Graphics/SVG/1.1/DTD/svg11.dtd">
<svg version="1.1" id="Layer_1" xmlns="http://www.w3.org/2000/svg" xmlns:xlink="http://www.w3.org/1999/xlink" x="0px" y="0px"
	 width="140px" height="32px" viewBox="0 0 140 32" enable-background="new 0 0 140 32" xml:space="preserve">
<metadata>
	Created by potrace 1.14, written by Peter Selinger 2001-2017
</metadata>

<g transform="translate(0.000000,100.000000) scale(0.100000,-0.100000)"
fill="#000000" stroke="none">
<path d="M661 756 l-63 -64 -55 29 c-119 63 -251 19 -315 -105 -29 -57 -23
-158 14 -212 l26 -39 -66 -70 c-37 -38 67 63 231 225 163 162 297 296 297 297
0 7 -10 -2 -69 -61z m-122 -46 c23 -11 41 -24 41 -28 0 -4 -67 -74 -149 -156
-96 -96 -153 -146 -161 -141 -23 14 -50 90 -50 140 0 57 43 143 85 171 73 48
158 53 234 14z"/>
</g>
</svg>
